<?xml version="1.0" encoding="UTF-8"?>
<!DOCTYPE svg PUBLIC "-//W3C//DTD SVG 1.1//EN" "http://www.w3.org/Graphics/SVG/1.1/DTD/svg11.dtd">
<svg xmlns="http://www.w3.org/2000/svg" version="1.1" width="512px" height="512px" style="shape-rendering:geometricPrecision; text-rendering:geometricPrecision; image-rendering:optimizeQuality; fill-rule:evenodd; clip-rule:evenodd" xmlns:xlink="http://www.w3.org/1999/xlink">
<g><path style="opacity:0.969" fill="#030302" d="M -0.5,344.5 C -0.5,311.833 -0.5,279.167 -0.5,246.5C 32.1667,246.5 64.8333,246.5 97.5,246.5C 97.3334,275.169 97.5,303.835 98,332.5C 106.404,342.785 116.904,345.619 129.5,341C 133.342,339.332 136.509,336.832 139,333.5C 140.317,275.878 140.984,218.211 141,160.5C 148.583,107.583 178.416,75.0833 230.5,63C 268.116,56.239 302.116,64.239 332.5,87C 352.612,104.717 364.778,126.884 369,153.5C 370.569,171.799 370.902,190.132 370,208.5C 352.249,219.292 334.416,229.959 316.5,240.5C 301.858,229.692 287.358,218.692 273,207.5C 272.667,194.833 272.333,182.167 272,169.5C 269.979,162.48 265.312,158.813 258,158.5C 253.681,158.501 250.681,160.501 249,164.5C 247.968,224.794 246.968,285.127 246,345.5C 236.05,395.456 206.884,428.623 158.5,445C 106.764,457.864 62.9305,444.697 27,405.5C 12.3685,387.575 3.20179,367.241 -0.5,344.5 Z"/></g>
<g><path style="opacity:1" fill="#fddf00" d="M 65.5,414.5 C 47.1554,393.784 36.9887,369.451 35,341.5C 34.5,315.835 34.3334,290.169 34.5,264.5C 49.5,264.5 64.5,264.5 79.5,264.5C 79.3334,288.502 79.5,312.502 80,336.5C 85.4294,350.476 95.5961,358.643 110.5,361C 126.858,363.88 140.691,359.38 152,347.5C 155.784,342.482 157.784,336.815 158,330.5C 158.333,273.5 158.667,216.5 159,159.5C 166.631,117.536 191.131,91.3689 232.5,81C 265.003,74.4622 294.336,81.1289 320.5,101C 347.762,127.455 358.262,159.622 352,197.5C 340.918,204.625 329.751,211.625 318.5,218.5C 309.473,211.64 300.307,204.973 291,198.5C 290.667,187.5 290.333,176.5 290,165.5C 283.325,146.237 269.825,138.404 249.5,142C 239.091,146.078 232.591,153.578 230,164.5C 229.667,221.167 229.333,277.833 229,334.5C 222.457,385.381 194.29,417.215 144.5,430C 115.841,435.634 89.508,430.468 65.5,414.5 Z"/></g>
<g><path style="opacity:0.969" fill="#040302" d="M 511.5,246.5 C 511.5,279.5 511.5,312.5 511.5,345.5C 503.982,394.024 477.315,427.191 431.5,445C 370.352,458.517 322.519,439.35 288,387.5C 279.119,371.645 274.119,354.645 273,336.5C 272.167,303.495 272.333,270.495 273.5,237.5C 288.322,248.744 303.322,259.744 318.5,270.5C 335.333,259.915 352.333,249.582 369.5,239.5C 370.333,271.828 370.833,304.162 371,336.5C 374.832,346.148 381.998,351.481 392.5,352.5C 401.663,351.174 408.496,346.507 413,338.5C 413.5,307.835 413.667,277.168 413.5,246.5C 446.167,246.5 478.833,246.5 511.5,246.5 Z"/></g>
<g><path style="opacity:1" fill="#fdfdfc" d="M 34.5,264.5 C 34.3334,290.169 34.5,315.835 35,341.5C 36.9887,369.451 47.1554,393.784 65.5,414.5C 38.3944,397.338 22.5611,372.671 18,340.5C 17.5,315.169 17.3334,289.836 17.5,264.5C 23.1667,264.5 28.8333,264.5 34.5,264.5 Z"/></g>
<g><path style="opacity:1" fill="#fddf00" d="M 476.5,264.5 C 477.043,297.542 476.21,330.542 474,363.5C 471.602,378.857 467.102,393.523 460.5,407.5C 448.507,419.166 434.174,426.666 417.5,430C 364.942,436.971 325.775,417.471 300,371.5C 295.757,361.527 292.924,351.194 291.5,340.5C 291.169,318.327 291.503,296.327 292.5,274.5C 300.47,280.491 308.47,286.491 316.5,292.5C 328.416,285.626 340.249,278.626 352,271.5C 352.333,292.833 352.667,314.167 353,335.5C 355.665,352.84 365.499,364.007 382.5,369C 400.973,372.173 415.806,366.339 427,351.5C 428.528,348.583 429.861,345.583 431,342.5C 431.5,316.502 431.667,290.502 431.5,264.5C 446.5,264.5 461.5,264.5 476.5,264.5 Z"/></g>
<g><path style="opacity:1" fill="#fda700" d="M 476.5,264.5 C 482.167,264.5 487.833,264.5 493.5,264.5C 493.913,293.525 493.413,322.525 492,351.5C 487.939,373.971 477.439,392.638 460.5,407.5C 467.102,393.523 471.602,378.857 474,363.5C 476.21,330.542 477.043,297.542 476.5,264.5 Z"/></g>
<g><path style="opacity:1" fill="#a59101" d="M 292.5,274.5 C 291.503,296.327 291.169,318.327 291.5,340.5C 290.172,318.33 290.172,295.996 291.5,273.5C 292.107,273.624 292.44,273.957 292.5,274.5 Z"/></g>
</svg>
